<?xml version="1.0" encoding="UTF-8" ?>
<!DOCTYPE svg PUBLIC "-//W3C//DTD SVG 1.1//EN" "http://www.w3.org/Graphics/SVG/1.1/DTD/svg11.dtd">
<svg width="20pt" height="20pt" viewBox="0 0 500 500" version="1.1" xmlns="http://www.w3.org/2000/svg">
<g id="#ffffffff">
<path fill="#ffffff" opacity="1.00" d=" M 309.95 42.59 C 317.52 39.60 325.83 36.79 333.96 39.26 C 337.67 40.66 341.70 42.00 344.74 44.49 C 344.92 44.44 345.28 44.34 345.46 44.29 C 347.19 47.67 350.31 50.28 350.94 54.24 C 352.79 54.35 354.65 54.42 356.51 54.58 C 358.34 54.97 360.15 55.47 361.94 56.06 C 362.82 56.58 363.54 57.28 364.10 58.15 C 366.33 67.26 360.21 75.57 356.17 83.23 C 347.31 101.88 338.88 120.72 330.62 139.64 C 320.98 162.10 311.57 184.70 304.08 207.98 C 291.80 245.42 281.55 283.52 267.69 320.42 C 258.06 347.38 245.66 373.33 230.76 397.77 C 213.90 425.05 190.77 448.29 164.23 466.18 C 159.60 468.56 154.29 467.40 149.38 468.33 C 148.52 468.63 147.83 468.42 147.33 467.70 C 141.66 466.38 135.72 463.11 134.15 457.07 C 131.69 446.98 134.63 436.58 138.09 427.10 C 144.60 410.53 153.70 394.93 165.24 381.36 C 175.08 369.82 186.33 359.52 198.51 350.50 C 203.78 346.36 209.54 342.90 214.89 338.88 C 217.18 337.17 219.12 334.96 220.20 332.29 C 225.96 319.15 231.53 305.92 237.36 292.80 C 243.93 277.51 250.40 262.16 257.23 246.99 C 264.95 229.07 272.53 211.08 280.38 193.21 C 282.14 188.40 284.98 183.74 285.14 178.51 C 284.70 179.00 283.81 179.98 283.37 180.47 C 264.69 213.05 250.10 247.91 229.29 279.26 C 222.97 288.50 216.17 297.41 208.96 305.99 C 201.71 314.97 193.78 323.51 184.54 330.49 C 178.70 334.84 172.23 338.58 165.04 340.12 C 162.31 340.82 159.42 340.37 156.73 341.24 L 156.46 341.31 C 154.06 340.10 151.33 339.73 148.95 338.47 C 141.55 334.59 136.23 327.76 132.33 320.54 C 123.97 304.82 121.36 286.44 123.64 268.88 C 125.92 249.61 132.65 231.20 140.50 213.57 C 148.75 195.24 158.99 177.84 170.68 161.50 C 194.14 129.47 222.06 100.80 253.15 76.14 C 270.51 62.56 289.32 50.53 309.95 42.59 M 327.96 63.11 C 313.36 69.91 300.29 79.60 288.24 90.21 C 248.79 124.56 215.81 166.33 191.69 212.77 C 177.26 239.66 165.44 268.17 158.83 298.05 C 158.19 301.44 156.73 304.74 156.94 308.24 C 159.74 308.72 162.22 306.93 164.69 305.92 L 164.67 305.70 C 168.12 303.23 171.51 300.63 174.57 297.71 C 184.50 288.21 193.34 277.67 201.91 266.96 C 215.11 250.27 227.66 233.06 239.77 215.56 C 272.49 169.10 303.67 121.57 333.77 73.38 L 333.88 73.37 C 335.39 70.63 337.15 68.04 338.76 65.36 L 338.78 66.06 C 339.69 63.95 341.34 61.77 340.66 59.36 C 336.15 59.17 332.04 61.49 327.96 63.11 M 210.27 348.14 C 196.73 359.57 186.24 374.15 177.44 389.43 C 169.88 402.21 163.04 415.43 156.82 428.92 C 154.42 434.49 151.96 440.11 150.75 446.09 C 150.37 448.24 149.90 450.75 151.36 452.64 C 153.37 453.47 155.38 451.76 156.83 450.56 C 163.19 444.95 167.87 437.70 172.58 430.72 C 183.42 413.64 193.64 396.12 202.44 377.89 L 202.78 377.68 C 205.49 371.15 208.44 364.71 210.53 357.95 L 210.91 357.81 C 211.60 354.28 212.61 350.81 212.82 347.21 C 211.83 347.14 210.98 347.45 210.27 348.14 Z" />
</g>
<g id="#000000ff">
<path fill="#000000" opacity="1.00" d=" M 227.57 3.85 C 261.38 0.83 295.84 4.65 328.03 15.49 C 361.56 26.27 392.29 45.02 418.13 68.85 C 448.65 97.15 471.86 133.26 484.79 172.82 C 498.51 213.93 500.74 258.67 491.89 301.05 C 483.94 338.83 466.86 374.63 442.70 404.73 C 419.84 433.26 390.54 456.57 357.63 472.46 C 322.52 489.83 283.07 498.11 243.96 497.03 C 199.28 496.32 155.05 482.62 117.44 458.56 C 59.74 422.29 18.53 361.01 6.73 293.89 C -0.42 254.03 2.22 212.37 14.85 173.87 C 27.08 135.95 48.70 101.11 77.20 73.28 C 93.49 57.42 111.95 43.77 131.83 32.77 C 161.36 16.80 194.14 6.88 227.57 3.85 M 309.95 42.59 C 289.32 50.53 270.51 62.56 253.15 76.14 C 222.06 100.80 194.14 129.47 170.68 161.50 C 158.99 177.84 148.75 195.24 140.50 213.57 C 132.65 231.20 125.92 249.61 123.64 268.88 C 121.36 286.44 123.97 304.82 132.33 320.54 C 136.23 327.76 141.55 334.59 148.95 338.47 C 151.33 339.73 154.06 340.10 156.46 341.31 L 156.73 341.24 C 157.90 342.32 159.46 342.77 160.95 343.25 C 165.66 346.43 171.72 346.67 177.17 345.77 C 187.61 343.75 196.53 337.29 204.29 330.32 C 216.02 319.58 225.93 307.06 235.55 294.45 C 236.00 294.04 236.90 293.21 237.36 292.80 C 231.53 305.92 225.96 319.15 220.20 332.29 C 219.12 334.96 217.18 337.17 214.89 338.88 C 209.54 342.90 203.78 346.36 198.51 350.50 C 186.33 359.52 175.08 369.82 165.24 381.36 C 153.70 394.93 144.60 410.53 138.09 427.10 C 134.63 436.58 131.69 446.98 134.15 457.07 C 135.72 463.11 141.66 466.38 147.33 467.70 C 147.83 468.42 148.52 468.63 149.38 468.33 C 150.74 469.90 153.02 470.36 155.02 470.56 L 155.11 471.81 C 162.17 473.71 170.00 474.39 176.98 471.80 C 204.08 453.92 227.43 430.19 244.24 402.36 C 260.74 375.02 274.20 345.87 284.35 315.59 C 297.98 277.86 308.11 238.98 321.16 201.05 C 334.79 163.27 351.43 126.68 368.30 90.26 C 372.14 82.89 377.26 75.62 377.67 67.05 C 378.09 63.25 374.21 60.38 370.71 60.69 C 368.73 59.30 366.63 57.93 364.10 58.15 C 363.54 57.28 362.82 56.58 361.94 56.06 C 361.89 55.65 361.77 54.82 361.72 54.41 C 358.83 51.07 355.18 47.60 350.74 46.76 C 349.09 45.73 347.35 44.77 345.46 44.29 C 345.28 44.34 344.92 44.44 344.74 44.49 C 341.70 42.00 337.67 40.66 333.96 39.26 C 325.83 36.79 317.52 39.60 309.95 42.59 Z" />
<path fill="#000000" opacity="1.00" d=" M 325.44 77.37 C 328.16 76.01 330.55 73.30 333.77 73.38 C 303.67 121.57 272.49 169.10 239.77 215.56 C 227.66 233.06 215.11 250.27 201.91 266.96 C 193.34 277.67 184.50 288.21 174.57 297.71 L 173.11 297.74 C 181.58 263.85 196.44 231.91 213.73 201.69 C 226.91 178.90 242.22 157.35 259.52 137.50 C 279.13 115.10 300.52 93.86 325.44 77.37 Z" />
<path fill="#000000" opacity="1.00" d=" M 200.06 380.04 C 200.66 379.11 201.46 378.39 202.44 377.89 C 193.64 396.12 183.42 413.64 172.58 430.72 C 171.55 429.55 172.84 428.25 173.20 427.12 C 181.28 410.95 189.70 394.88 200.06 380.04 Z" />
</g>
<g id="#a6a6a6ff">
<path fill="#a6a6a6" opacity="1.00" d=" M 345.46 44.29 C 347.35 44.77 349.09 45.73 350.74 46.76 C 352.87 49.19 355.68 51.28 356.51 54.58 C 354.65 54.42 352.79 54.35 350.94 54.24 C 350.31 50.28 347.19 47.67 345.46 44.29 Z" />
<path fill="#a6a6a6" opacity="1.00" d=" M 364.10 58.15 C 366.63 57.93 368.73 59.30 370.71 60.69 C 372.70 70.66 365.93 79.31 361.75 87.75 C 344.87 124.14 328.24 160.72 314.64 198.49 C 300.91 238.59 290.27 279.70 275.50 319.46 C 265.21 348.77 251.89 377.03 235.43 403.39 C 219.41 428.37 198.09 449.78 173.81 466.78 C 168.73 471.42 161.37 470.72 155.02 470.56 C 153.02 470.36 150.74 469.90 149.38 468.33 C 154.29 467.40 159.60 468.56 164.23 466.18 C 190.77 448.29 213.90 425.05 230.76 397.77 C 245.66 373.33 258.06 347.38 267.69 320.42 C 281.55 283.52 291.80 245.42 304.08 207.98 C 311.57 184.70 320.98 162.10 330.62 139.64 C 338.88 120.72 347.31 101.88 356.17 83.23 C 360.21 75.57 366.33 67.26 364.10 58.15 Z" />
<path fill="#a6a6a6" opacity="1.00" d=" M 327.96 63.11 C 332.04 61.49 336.15 59.17 340.66 59.36 C 341.34 61.77 339.69 63.95 338.78 66.06 L 338.76 65.36 L 338.75 64.11 C 324.04 70.28 310.96 79.62 298.64 89.63 C 247.60 132.63 207.79 188.35 181.80 249.70 C 175.20 265.63 169.53 281.98 165.75 298.81 C 165.28 301.08 164.28 303.34 164.67 305.70 L 164.69 305.92 C 162.22 306.93 159.74 308.72 156.94 308.24 C 156.73 304.74 158.19 301.44 158.83 298.05 C 165.44 268.17 177.26 239.66 191.69 212.77 C 215.81 166.33 248.79 124.56 288.24 90.21 C 300.29 79.60 313.36 69.91 327.96 63.11 Z" />
<path fill="#a6a6a6" opacity="1.00" d=" M 283.37 180.47 C 283.81 179.98 284.70 179.00 285.14 178.51 C 284.98 183.74 282.14 188.40 280.38 193.21 C 272.53 211.08 264.95 229.07 257.23 246.99 L 256.86 246.11 C 250.10 258.45 243.29 270.77 235.45 282.46 C 229.25 291.48 222.60 300.20 215.56 308.59 C 206.62 319.56 196.76 330.14 184.58 337.56 C 177.57 341.90 169.22 344.34 160.95 343.25 C 159.46 342.77 157.90 342.32 156.73 341.24 C 159.42 340.37 162.31 340.82 165.04 340.12 C 172.23 338.58 178.70 334.84 184.54 330.49 C 193.78 323.51 201.71 314.97 208.96 305.99 C 216.17 297.41 222.97 288.50 229.29 279.26 C 250.10 247.91 264.69 213.05 283.37 180.47 Z" />
<path fill="#a6a6a6" opacity="1.00" d=" M 210.27 348.14 C 210.98 347.45 211.83 347.14 212.82 347.21 C 212.61 350.81 211.60 354.28 210.91 357.81 L 210.53 357.95 C 210.11 358.14 209.27 358.52 208.85 358.71 C 200.46 367.21 193.53 377.02 187.14 387.08 C 179.08 400.04 171.81 413.48 165.28 427.28 C 161.86 434.79 158.36 442.39 156.83 450.56 C 155.38 451.76 153.37 453.47 151.36 452.64 C 149.90 450.75 150.37 448.24 150.75 446.09 C 151.96 440.11 154.42 434.49 156.82 428.92 C 163.04 415.43 169.88 402.21 177.44 389.43 C 186.24 374.15 196.73 359.57 210.27 348.14 Z" />
</g>
<g id="#4d4d4dff">
<path fill="#4d4d4d" opacity="1.00" d=" M 350.74 46.76 C 355.18 47.60 358.83 51.07 361.72 54.41 C 361.77 54.82 361.89 55.65 361.94 56.06 C 360.15 55.47 358.34 54.97 356.51 54.58 C 355.68 51.28 352.87 49.19 350.74 46.76 Z" />
<path fill="#4d4d4d" opacity="1.00" d=" M 370.71 60.69 C 374.21 60.38 378.09 63.25 377.67 67.05 C 377.26 75.62 372.14 82.89 368.30 90.26 C 351.43 126.68 334.79 163.27 321.16 201.05 C 308.11 238.98 297.98 277.86 284.35 315.59 C 274.20 345.87 260.74 375.02 244.24 402.36 C 227.43 430.19 204.08 453.92 176.98 471.80 C 170.00 474.39 162.17 473.71 155.11 471.81 L 155.02 470.56 C 161.37 470.72 168.73 471.42 173.81 466.78 C 198.09 449.78 219.41 428.37 235.43 403.39 C 251.89 377.03 265.21 348.77 275.50 319.46 C 290.27 279.70 300.91 238.59 314.64 198.49 C 328.24 160.72 344.87 124.14 361.75 87.75 C 365.93 79.31 372.70 70.66 370.71 60.69 Z" />
<path fill="#4d4d4d" opacity="1.00" d=" M 298.64 89.63 C 310.96 79.62 324.04 70.28 338.75 64.11 L 338.76 65.36 C 337.15 68.04 335.39 70.63 333.88 73.37 L 333.77 73.38 C 330.55 73.30 328.16 76.01 325.44 77.37 C 300.52 93.86 279.13 115.10 259.52 137.50 C 242.22 157.35 226.91 178.90 213.73 201.69 C 196.44 231.91 181.58 263.85 173.11 297.74 L 174.57 297.71 C 171.51 300.63 168.12 303.23 164.67 305.70 C 164.28 303.34 165.28 301.08 165.75 298.81 C 169.53 281.98 175.20 265.63 181.80 249.70 C 207.79 188.35 247.60 132.63 298.64 89.63 Z" />
<path fill="#4d4d4d" opacity="1.00" d=" M 235.45 282.46 C 243.29 270.77 250.10 258.45 256.86 246.11 L 257.23 246.99 C 250.40 262.16 243.93 277.51 237.36 292.80 C 236.90 293.21 236.00 294.04 235.55 294.45 C 225.93 307.06 216.02 319.58 204.29 330.32 C 196.53 337.29 187.61 343.75 177.17 345.77 C 171.72 346.67 165.66 346.43 160.95 343.25 C 169.22 344.34 177.57 341.90 184.58 337.56 C 196.76 330.14 206.62 319.56 215.56 308.59 C 222.60 300.20 229.25 291.48 235.45 282.46 Z" />
<path fill="#4d4d4d" opacity="1.00" d=" M 208.85 358.71 C 209.27 358.52 210.11 358.14 210.53 357.95 C 208.44 364.71 205.49 371.15 202.78 377.68 L 202.44 377.89 C 201.46 378.39 200.66 379.11 200.06 380.04 C 189.70 394.88 181.28 410.95 173.20 427.12 C 172.84 428.25 171.55 429.55 172.58 430.72 C 167.87 437.70 163.19 444.95 156.83 450.56 C 158.36 442.39 161.86 434.79 165.28 427.28 C 171.81 413.48 179.08 400.04 187.14 387.08 C 193.53 377.02 200.46 367.21 208.85 358.71 Z" />
</g>
</svg>
